<?xml version="1.0" standalone="no"?>
<!DOCTYPE svg PUBLIC "-//W3C//DTD SVG 20010904//EN"
 "http://www.w3.org/TR/2001/REC-SVG-20010904/DTD/svg10.dtd">
<svg version="1.0" xmlns="http://www.w3.org/2000/svg"
 width="1197.000000pt" height="521.000000pt" viewBox="0 0 1197.000000 521.000000"
 preserveAspectRatio="xMidYMid meet">

<g transform="translate(0.000000,521.000000) scale(0.100000,-0.100000)"
fill="#000000" stroke="none">
<path d="M4770 5172 c0 -4 -30 -13 -67 -20 -38 -7 -83 -15 -101 -18 -18 -4
-35 -10 -38 -15 -3 -5 -18 -9 -33 -9 -15 0 -31 -3 -35 -7 -7 -7 -87 -27 -164
-40 -18 -3 -35 -9 -38 -14 -3 -5 -18 -9 -34 -9 -16 0 -32 -4 -35 -10 -3 -5
-17 -10 -29 -10 -13 0 -28 -6 -33 -12 -13 -17 -28 -95 -48 -248 -9 -69 -21
-133 -26 -142 -5 -10 -9 -33 -9 -51 0 -18 -4 -37 -9 -42 -5 -6 -11 -28 -15
-50 -17 -126 -32 -204 -38 -211 -5 -4 -8 -27 -8 -51 0 -23 -4 -43 -10 -43 -5
0 -10 -20 -10 -45 0 -25 -4 -45 -10 -45 -5 0 -10 -11 -10 -25 0 -33 -32 -179
-41 -185 -6 -5 -10 -21 -25 -115 -3 -22 -10 -45 -15 -50 -4 -6 -11 -31 -15
-55 -3 -25 -14 -64 -25 -87 -10 -24 -19 -56 -19 -72 0 -17 -4 -32 -9 -36 -6
-3 -13 -27 -16 -53 -6 -44 -15 -73 -36 -114 -5 -10 -9 -29 -9 -43 0 -14 -4
-33 -9 -43 -19 -35 -31 -75 -38 -124 -3 -21 -9 -38 -14 -38 -5 0 -9 -9 -9 -20
0 -11 -8 -34 -19 -52 -10 -18 -21 -55 -25 -81 -4 -26 -17 -67 -28 -90 -29 -58
-36 -77 -44 -116 -3 -19 -15 -50 -25 -68 -11 -19 -19 -40 -19 -47 0 -8 -7 -27
-15 -42 -8 -16 -15 -37 -15 -46 0 -9 -4 -20 -10 -23 -5 -3 -10 -15 -10 -25 0
-11 -13 -49 -30 -84 -16 -36 -32 -77 -36 -91 -3 -14 -10 -28 -15 -31 -5 -3 -9
-16 -9 -30 0 -13 -4 -24 -10 -24 -5 0 -10 -9 -10 -20 0 -11 -4 -20 -10 -20 -5
0 -10 -7 -10 -15 0 -14 -12 -43 -57 -141 -12 -28 -23 -53 -23 -57 0 -3 -18
-45 -41 -94 -22 -48 -52 -113 -65 -143 -45 -97 -47 -101 -57 -91 -5 5 -6 31
-3 58 6 45 11 127 37 598 5 105 14 336 19 515 5 179 12 372 15 430 3 58 10
337 16 620 6 283 12 609 15 724 3 149 2 212 -7 222 -7 8 -30 14 -58 14 -26 0
-52 5 -59 12 -9 9 -15 9 -23 1 -9 -9 -16 -9 -29 0 -14 8 -22 8 -34 -2 -8 -7
-20 -10 -25 -7 -12 8 -153 -14 -165 -25 -6 -5 -22 -9 -37 -9 -15 0 -31 -4 -34
-10 -3 -5 -15 -10 -25 -10 -17 0 -171 -75 -234 -113 -11 -7 -44 -27 -72 -44
-29 -18 -57 -33 -62 -33 -5 0 -17 -9 -27 -20 -10 -11 -24 -20 -32 -20 -7 0
-13 -4 -13 -10 0 -5 -6 -10 -12 -10 -7 0 -30 -16 -50 -35 -20 -19 -39 -35 -43
-35 -10 0 -108 -75 -129 -99 -11 -11 -23 -21 -29 -21 -5 0 -21 -13 -35 -28
-15 -15 -37 -35 -48 -43 -91 -62 -648 -618 -663 -661 -2 -6 -14 -21 -27 -33
-13 -12 -24 -27 -24 -32 0 -5 -10 -18 -21 -29 -28 -25 -100 -119 -124 -164
-11 -19 -30 -45 -42 -58 -13 -12 -23 -31 -23 -41 0 -10 -8 -25 -18 -35 -11 -9
-32 -42 -48 -74 -15 -31 -32 -58 -36 -60 -4 -2 -8 -9 -8 -16 0 -7 -9 -30 -19
-52 -11 -22 -22 -57 -26 -79 -4 -22 -12 -46 -17 -52 -6 -7 -11 -44 -12 -82 0
-38 -4 -72 -8 -76 -7 -7 -4 -15 20 -62 7 -13 12 -30 12 -38 0 -9 6 -18 14 -21
8 -3 16 -14 19 -25 3 -10 16 -23 29 -28 13 -5 30 -16 37 -25 7 -9 21 -16 30
-16 9 0 21 -4 26 -9 6 -5 65 -18 132 -27 96 -14 127 -15 145 -6 13 6 43 13 68
14 l45 3 -3 45 c-1 25 -5 77 -8 117 -6 77 18 259 36 277 5 5 10 20 10 33 0 13
5 33 12 46 26 50 29 59 35 105 3 26 14 59 24 74 11 14 19 33 19 42 0 9 4 16 9
16 5 0 12 15 16 33 4 17 9 34 10 37 12 32 22 51 44 85 14 22 35 58 46 80 18
37 102 164 115 175 4 3 10 12 13 20 23 49 69 107 184 228 51 53 93 102 93 107
0 6 17 21 36 35 20 14 50 40 68 58 17 17 36 32 41 32 6 0 29 18 50 40 21 22
43 40 48 40 5 0 32 16 58 35 27 19 54 35 59 35 6 0 10 3 10 8 0 10 52 33 59
26 3 -3 1 -8 -4 -12 -10 -7 -21 -29 -49 -97 -10 -22 -21 -48 -26 -57 -6 -10
-10 -27 -10 -38 0 -11 -4 -20 -10 -20 -5 0 -10 -7 -10 -15 0 -8 -4 -23 -9 -33
-5 -9 -13 -28 -19 -42 -6 -14 -21 -50 -35 -80 -51 -115 -57 -128 -57 -137 0
-15 -25 -63 -32 -63 -5 0 -8 -9 -8 -20 0 -11 -4 -28 -9 -38 -5 -9 -37 -74 -70
-144 -34 -71 -88 -185 -122 -255 -33 -71 -66 -139 -72 -153 -7 -14 -24 -45
-39 -69 -15 -24 -30 -56 -33 -72 -4 -16 -10 -29 -15 -29 -4 0 -10 -8 -13 -17
-3 -10 -12 -29 -20 -43 -8 -14 -24 -46 -36 -72 -12 -26 -27 -50 -32 -54 -8 -5
-24 -35 -34 -64 -10 -29 -26 -59 -34 -65 -6 -3 -22 -30 -35 -58 -13 -29 -31
-59 -40 -66 -9 -7 -16 -19 -16 -25 0 -6 -16 -38 -36 -71 -36 -58 -77 -129 -98
-170 -6 -11 -21 -34 -33 -52 -13 -17 -23 -34 -23 -38 0 -3 -13 -26 -30 -50
-16 -24 -30 -48 -30 -54 0 -6 -4 -11 -9 -11 -5 0 -11 -8 -15 -17 -3 -10 -17
-36 -31 -58 -14 -22 -31 -51 -38 -65 -6 -14 -24 -38 -39 -55 -16 -16 -28 -35
-28 -42 0 -6 -11 -25 -25 -41 -14 -17 -25 -33 -25 -37 0 -4 -11 -20 -25 -37
-14 -16 -25 -38 -25 -49 0 -10 -4 -19 -9 -19 -10 0 -81 -95 -81 -108 0 -5 -11
-19 -25 -32 -14 -13 -25 -29 -25 -35 0 -7 -9 -20 -20 -30 -11 -10 -20 -24 -20
-32 0 -7 -4 -13 -10 -13 -5 0 -10 -6 -10 -14 0 -7 -7 -19 -15 -26 -8 -6 -43
-53 -77 -102 -35 -50 -75 -105 -90 -123 -16 -18 -28 -36 -28 -40 0 -4 -12 -22
-27 -40 -49 -57 -63 -75 -63 -81 0 -3 -27 -39 -60 -80 -33 -41 -60 -78 -60
-83 0 -6 -8 -16 -18 -23 -9 -7 -30 -31 -46 -53 -17 -22 -32 -42 -36 -45 -3 -3
-23 -29 -45 -58 -21 -28 -43 -52 -47 -52 -4 0 -8 -6 -8 -12 0 -11 -106 -140
-202 -247 -23 -26 -28 -38 -21 -50 9 -14 51 -16 314 -19 226 -2 310 1 329 10
28 14 73 60 98 100 9 16 20 28 24 28 4 0 8 6 8 13 0 8 11 24 25 37 14 13 25
29 25 35 0 6 12 22 26 36 14 13 30 33 35 44 15 33 33 59 52 73 9 7 17 19 17
26 0 7 11 23 25 36 14 13 25 29 25 35 0 7 9 20 20 30 11 10 20 23 20 30 0 6
11 22 25 35 14 13 25 27 25 32 0 5 11 21 25 36 14 15 25 34 25 43 0 8 12 26
26 40 14 13 30 33 35 44 13 28 30 55 57 84 12 14 22 31 22 38 0 7 14 28 30 46
17 19 30 38 30 42 0 5 11 23 25 41 14 18 25 38 25 44 0 6 11 23 25 38 14 15
25 34 25 43 0 9 7 23 16 30 9 7 29 36 46 64 42 72 52 89 58 95 3 3 10 14 16
25 38 69 66 118 88 154 14 22 26 43 26 46 0 4 13 25 28 48 15 23 33 53 40 67
7 14 30 57 52 95 51 92 94 178 92 186 0 4 8 15 18 24 11 10 20 24 20 32 0 7 5
13 10 13 6 0 10 7 10 16 0 8 12 36 27 62 34 61 58 108 79 157 10 22 21 42 24
45 6 5 50 98 72 150 6 14 17 36 25 50 8 14 21 40 29 58 20 44 27 40 20 -10 -3
-24 -12 -99 -20 -168 -8 -69 -20 -150 -26 -180 -6 -30 -15 -89 -19 -130 -11
-92 -29 -205 -42 -246 -5 -17 -9 -60 -9 -95 0 -36 -4 -69 -9 -74 -5 -6 -12
-37 -14 -70 -5 -54 -18 -129 -48 -280 -20 -97 -30 -168 -57 -390 -6 -44 -15
-96 -21 -115 -6 -19 -11 -51 -11 -70 0 -20 -4 -40 -9 -45 -5 -6 -11 -28 -14
-50 -10 -78 -28 -191 -37 -233 -6 -23 -10 -69 -10 -102 0 -32 -4 -62 -10 -65
-5 -3 -10 -23 -10 -43 0 -20 -9 -62 -19 -92 -17 -50 -18 -56 -3 -68 12 -9 143
-12 575 -12 l559 0 29 31 c16 17 29 36 29 43 0 16 55 124 74 144 8 10 22 34
30 54 9 20 20 39 26 43 5 3 10 17 10 31 0 13 3 24 8 24 8 0 42 73 42 90 0 6 3
10 8 10 4 0 25 35 46 77 21 43 42 86 47 96 20 39 27 53 37 77 16 38 82 182 98
212 8 14 14 32 14 40 0 7 9 24 20 38 11 14 20 35 20 48 0 12 5 22 10 22 6 0
10 5 10 11 0 6 16 45 35 86 19 41 38 86 41 99 3 13 10 27 15 30 5 3 9 16 9 30
0 13 3 24 8 24 9 0 26 37 48 108 9 28 21 52 26 52 4 0 8 11 8 24 0 14 4 27 9
31 5 3 17 31 26 63 8 31 20 65 25 74 6 10 10 27 10 38 0 11 3 20 8 20 8 0 32
48 32 66 0 6 7 25 15 40 8 16 15 39 15 51 0 12 5 25 10 28 6 3 10 14 10 24 0
9 10 37 21 61 12 24 24 61 27 82 2 21 9 41 13 44 5 3 9 14 9 24 0 11 8 34 19
52 10 18 21 54 25 80 4 25 16 64 26 87 11 22 20 53 20 70 0 16 4 32 9 35 5 3
17 38 26 78 10 40 21 77 26 82 5 6 9 23 9 38 0 15 5 28 10 28 6 0 10 16 10 36
0 19 4 33 9 30 10 -7 9 -111 -2 -122 -11 -12 -8 -62 5 -84 10 -15 10 -27 0
-52 -7 -21 -12 -113 -13 -256 -1 -122 -5 -225 -9 -227 -3 -2 -8 -86 -10 -187
-4 -240 -4 -241 -12 -253 -3 -6 -9 -114 -12 -240 -3 -127 -11 -246 -16 -265
-7 -25 -7 -43 1 -63 9 -21 9 -34 0 -50 -6 -12 -13 -62 -15 -112 -2 -49 -6 -97
-9 -105 -3 -8 -8 -55 -12 -105 -3 -49 -10 -135 -15 -190 -5 -55 -14 -170 -19
-255 -6 -85 -16 -166 -21 -179 -6 -13 -9 -24 -8 -25 2 0 13 -7 25 -14 34 -18
1151 -17 1176 2 13 10 19 33 23 92 3 44 5 86 4 94 -1 8 -3 159 -6 335 -2 192
-9 331 -15 347 -7 17 -7 33 -1 45 9 17 8 58 -2 208 -3 33 -8 179 -11 325 -4
146 -10 270 -13 275 -5 8 -13 174 -14 290 0 20 -7 112 -28 355 -6 69 -16 199
-21 290 -12 186 -24 341 -38 480 -5 52 -13 138 -17 190 -3 52 -10 100 -14 105
-5 6 -11 70 -14 144 -3 74 -10 139 -15 145 -5 6 -9 51 -10 101 -1 49 -6 94
-11 99 -6 6 -10 38 -10 71 0 34 -5 87 -11 119 -13 74 -29 217 -35 326 -3 47
-10 89 -15 94 -5 6 -9 27 -9 48 0 21 -3 38 -8 38 -4 0 -9 37 -10 82 -2 45 -8
90 -13 100 -6 10 -9 26 -8 36 1 9 -1 47 -5 85 l-8 67 -54 0 c-30 0 -54 -4 -54
-8z"/>
<path d="M6195 4300 c-51 -12 -75 -22 -75 -31 0 -5 -9 -9 -20 -9 -11 0 -20 -4
-20 -10 0 -5 -6 -10 -14 -10 -7 0 -42 -29 -77 -63 -57 -57 -80 -93 -133 -206
-16 -34 -14 -257 2 -273 6 -6 12 -22 12 -35 0 -13 3 -23 8 -23 4 0 15 -18 24
-39 18 -42 142 -171 164 -171 8 0 14 -4 14 -10 0 -5 9 -10 20 -10 11 0 20 -4
20 -9 0 -4 25 -16 56 -26 44 -14 79 -17 162 -13 59 2 116 9 127 15 11 6 34 17
50 24 71 32 136 84 180 144 17 22 32 42 35 45 13 11 40 79 40 98 0 12 5 24 10
27 12 8 13 232 1 239 -5 3 -12 23 -16 43 -4 21 -15 49 -26 64 -10 15 -19 31
-19 36 0 21 -126 134 -174 157 -107 52 -125 56 -225 55 -53 -1 -109 -5 -126
-9z"/>
<path d="M11310 4130 c-8 -5 -27 -10 -42 -10 -14 0 -28 -4 -30 -8 -1 -4 -29
-20 -60 -35 -31 -15 -81 -52 -110 -81 -53 -53 -108 -144 -108 -179 0 -9 -4
-17 -9 -17 -16 0 -38 -195 -22 -204 6 -4 11 -22 11 -41 0 -19 4 -36 9 -39 4
-3 11 -24 15 -46 3 -22 11 -40 16 -40 6 0 10 -6 10 -14 0 -18 148 -166 166
-166 8 0 14 -3 14 -8 0 -8 47 -30 98 -45 56 -16 219 -14 279 4 58 18 164 83
207 128 30 32 44 53 73 114 10 20 21 37 25 37 5 0 8 13 8 29 0 17 5 33 10 36
14 8 13 197 -1 232 -6 15 -16 39 -22 53 -46 116 -129 207 -232 255 -39 18 -88
38 -110 44 -49 13 -175 14 -195 1z"/>
<path d="M8520 3170 c-8 -5 -32 -10 -52 -10 -20 0 -39 -4 -42 -9 -3 -4 -28
-11 -56 -15 -27 -4 -50 -11 -50 -16 0 -6 -6 -10 -13 -10 -15 0 -109 -46 -152
-75 -49 -32 -54 -37 -131 -109 -41 -38 -77 -66 -81 -63 -4 4 -1 13 5 19 7 7
12 28 12 48 0 20 4 40 9 45 5 6 11 28 14 50 3 22 10 58 15 79 6 22 9 44 6 48
-9 14 -848 10 -862 -4 -7 -7 -12 -29 -12 -49 0 -21 -4 -41 -10 -44 -5 -3 -10
-21 -10 -40 0 -19 -4 -36 -9 -39 -4 -3 -11 -31 -15 -63 -8 -78 -11 -91 -19
-99 -4 -4 -7 -22 -7 -40 0 -18 -4 -36 -10 -39 -5 -3 -10 -24 -10 -45 0 -21 -4
-42 -10 -45 -5 -3 -10 -24 -10 -45 0 -21 -4 -41 -9 -44 -5 -3 -12 -40 -16 -81
-4 -41 -11 -75 -16 -75 -5 0 -9 -20 -9 -45 0 -25 -4 -45 -10 -45 -5 0 -10 -20
-10 -45 0 -25 -4 -45 -9 -45 -5 0 -12 -34 -16 -75 -4 -41 -11 -77 -16 -81 -5
-3 -9 -23 -9 -44 0 -21 -4 -42 -10 -45 -5 -3 -10 -24 -10 -45 0 -21 -4 -41 -9
-44 -4 -3 -11 -25 -15 -48 -21 -141 -32 -197 -38 -204 -5 -4 -8 -22 -8 -40 0
-18 -4 -36 -10 -39 -5 -3 -10 -21 -10 -40 0 -19 -4 -36 -9 -39 -5 -3 -12 -42
-16 -86 -4 -44 -11 -83 -16 -86 -5 -3 -9 -20 -9 -39 0 -19 -4 -37 -10 -40 -5
-3 -10 -23 -10 -44 0 -21 -3 -41 -7 -45 -7 -7 -21 -77 -39 -199 -4 -20 -10
-40 -15 -43 -5 -3 -9 -23 -9 -44 0 -21 -4 -42 -10 -45 -5 -3 -10 -24 -10 -45
0 -21 -4 -41 -9 -44 -5 -4 -12 -40 -16 -81 -4 -42 -11 -78 -16 -81 -5 -3 -9
-23 -9 -44 0 -21 -4 -41 -9 -44 -5 -3 -11 -23 -15 -43 -18 -122 -32 -192 -38
-199 -5 -4 -8 -18 -8 -31 l0 -23 434 0 434 0 6 31 c3 17 6 44 6 60 0 15 5 31
10 34 6 3 10 24 10 45 0 21 4 41 9 44 5 3 11 20 14 38 3 18 13 74 22 123 9 50
18 107 22 128 3 20 9 40 14 43 5 3 9 20 9 38 0 17 4 36 9 42 5 5 11 27 14 49
3 22 13 76 22 120 9 44 19 98 22 120 3 22 9 44 14 49 5 6 9 27 9 47 0 21 4 40
9 43 4 3 11 37 15 76 4 38 11 72 17 75 5 4 9 23 9 44 0 20 4 41 9 47 5 5 11
27 14 49 3 22 10 60 15 85 16 72 24 112 29 155 3 22 9 44 14 50 5 5 9 26 9 46
0 21 4 40 9 43 5 3 11 20 14 38 3 18 11 62 17 98 6 36 15 73 20 82 6 10 10 27
10 38 0 11 5 20 10 20 6 0 10 8 10 18 0 10 11 42 25 70 14 29 25 56 25 62 0 5
3 10 8 10 4 0 15 17 25 38 27 58 38 72 107 144 37 38 77 70 92 73 15 4 30 11
33 16 4 5 23 9 44 9 20 0 42 5 47 10 14 14 118 -21 149 -50 13 -12 33 -46 45
-74 19 -48 21 -67 17 -202 -3 -82 -10 -174 -16 -204 -6 -30 -16 -92 -23 -137
-6 -46 -15 -83 -20 -83 -4 0 -8 -18 -8 -39 0 -22 -4 -43 -10 -46 -5 -3 -10
-21 -10 -40 0 -19 -4 -36 -9 -39 -5 -3 -12 -40 -16 -81 -4 -41 -11 -75 -16
-75 -5 0 -9 -15 -9 -34 0 -19 -4 -38 -10 -41 -5 -3 -10 -24 -10 -45 0 -21 -4
-42 -10 -45 -5 -3 -10 -24 -10 -45 0 -21 -5 -42 -10 -45 -6 -4 -10 -18 -10
-33 0 -53 -12 -122 -21 -122 -5 0 -9 -22 -9 -49 0 -28 -4 -53 -10 -56 -5 -3
-10 -34 -11 -68 0 -34 -4 -82 -7 -107 -10 -63 21 -324 39 -336 5 -3 9 -11 9
-19 0 -7 13 -42 30 -78 43 -93 140 -194 221 -231 35 -16 72 -32 81 -37 10 -5
31 -9 47 -9 17 0 33 -5 36 -10 8 -13 262 -13 270 0 3 5 22 10 41 10 19 0 34 5
34 10 0 6 10 10 22 10 25 0 125 47 152 72 11 10 23 18 27 18 24 0 169 171 169
200 0 5 5 10 10 10 6 0 10 7 10 15 0 8 4 23 9 33 17 31 41 120 41 151 0 16 5
33 10 36 15 9 12 45 -3 45 -7 0 -18 -5 -23 -10 -13 -13 -216 -30 -229 -18 -5
4 -21 8 -35 8 -32 0 -82 43 -111 95 -19 36 -22 54 -21 167 1 70 6 136 12 147
5 11 10 35 10 55 0 19 4 37 9 40 5 3 11 20 14 38 5 32 13 66 36 153 6 22 11
55 11 73 0 17 4 32 9 32 5 0 11 17 14 38 3 20 11 57 17 82 6 25 17 71 23 102
7 31 15 60 20 64 4 4 7 22 7 40 0 18 5 36 10 39 6 3 10 23 10 44 0 20 4 41 9
46 9 9 25 105 38 220 3 28 9 55 15 62 13 16 13 402 -1 416 -6 6 -11 23 -11 38
0 15 -4 31 -10 34 -5 3 -10 18 -11 33 -1 44 -70 162 -125 214 -74 69 -204 138
-260 138 -19 0 -34 4 -34 9 0 19 -285 38 -310 21z"/>
<path d="M5722 3038 c-7 -7 -12 -26 -12 -43 0 -17 -4 -35 -9 -40 -5 -6 -11
-28 -14 -50 -3 -22 -8 -51 -11 -65 -3 -14 -9 -43 -12 -65 -3 -22 -9 -49 -14
-60 -8 -19 -12 -39 -27 -140 -3 -22 -9 -45 -14 -50 -4 -6 -11 -41 -15 -78 -4
-37 -11 -70 -15 -73 -5 -3 -9 -23 -9 -44 0 -21 -4 -41 -9 -44 -5 -3 -11 -20
-14 -38 -19 -115 -46 -254 -67 -338 -17 -71 -28 -119 -44 -205 -9 -44 -21
-100 -27 -125 -6 -25 -13 -61 -15 -80 -3 -19 -9 -44 -13 -55 -8 -19 -24 -101
-37 -185 -3 -19 -9 -44 -14 -55 -5 -11 -11 -36 -14 -55 -3 -19 -9 -60 -15 -90
-6 -30 -14 -77 -18 -105 -8 -61 -9 -372 -1 -400 4 -11 10 -41 14 -68 3 -26 11
-50 15 -53 5 -3 9 -16 9 -29 0 -13 3 -25 8 -27 4 -1 20 -29 36 -61 37 -74 140
-177 215 -214 31 -15 58 -31 59 -35 2 -5 19 -8 37 -8 19 0 36 -4 39 -9 23 -36
369 -36 392 0 3 5 18 9 35 9 16 0 29 4 29 8 0 4 23 16 51 27 28 11 58 28 66
37 9 10 21 18 27 18 13 0 136 121 136 133 0 5 14 28 30 52 17 24 30 50 30 59
0 8 4 18 10 21 5 3 12 28 16 55 4 28 10 50 15 50 5 0 9 22 9 48 0 26 6 54 13
61 10 11 2 12 -43 6 -30 -4 -65 -11 -78 -16 -35 -13 -114 -11 -179 6 -67 17
-106 53 -122 112 -13 45 -13 158 -1 228 5 28 12 66 15 85 4 19 10 44 15 55 5
11 11 36 14 55 17 112 32 189 39 196 4 4 7 24 7 45 0 21 5 41 10 44 6 3 10 24
10 45 0 21 5 42 10 45 6 3 10 24 10 45 0 21 4 41 9 44 4 3 7 17 6 31 -2 14 1
27 6 31 5 3 9 25 9 50 0 24 5 44 10 44 6 0 10 20 10 45 0 25 5 45 10 45 6 0
10 15 10 34 0 19 4 37 9 40 5 3 12 42 16 86 4 44 11 83 16 86 5 3 9 23 9 44 0
21 5 42 10 45 6 3 10 21 10 39 0 18 3 36 8 40 4 4 12 42 19 84 6 42 17 97 23
122 6 25 14 59 16 75 3 17 9 39 14 50 9 21 19 75 24 133 2 18 6 35 10 39 3 3
6 21 6 40 0 18 5 33 10 33 6 0 10 20 10 45 0 25 4 45 9 45 5 0 11 23 13 50 l3
50 -425 0 c-318 0 -429 -3 -438 -12z"/>
<path d="M11047 2923 c-4 -3 -22 -8 -39 -10 -46 -5 -130 -33 -146 -50 -7 -7
-17 -13 -21 -13 -14 0 -131 -123 -131 -137 0 -7 -4 -13 -10 -13 -5 0 -10 -8
-10 -18 0 -10 -5 -23 -10 -28 -6 -6 -13 -40 -17 -77 -3 -37 -10 -67 -14 -67
-16 0 -9 -15 12 -29 18 -11 23 -11 30 0 7 11 14 11 40 2 26 -10 36 -10 47 0
12 9 16 9 19 0 3 -7 18 -13 34 -13 15 0 53 -11 83 -25 30 -14 57 -25 61 -25
11 0 47 -38 62 -67 24 -43 30 -186 9 -218 -9 -13 -16 -38 -16 -54 0 -16 -4
-33 -10 -36 -5 -3 -10 -19 -10 -35 0 -16 -4 -32 -10 -35 -5 -3 -10 -22 -10
-41 0 -19 -4 -34 -10 -34 -5 0 -10 -10 -10 -22 0 -13 -7 -36 -15 -52 -8 -15
-15 -37 -15 -47 0 -10 -4 -21 -10 -24 -5 -3 -10 -24 -10 -46 0 -21 -4 -39 -9
-39 -5 0 -12 -29 -16 -65 -3 -36 -11 -67 -16 -70 -5 -4 -9 -22 -9 -41 0 -19
-4 -34 -10 -34 -5 0 -10 -9 -10 -19 0 -11 -4 -22 -9 -25 -5 -3 -12 -23 -17
-43 -4 -21 -9 -45 -11 -53 -2 -8 -6 -32 -9 -52 -3 -21 -10 -38 -15 -38 -5 0
-9 -15 -9 -34 0 -19 -4 -38 -10 -41 -5 -3 -10 -24 -10 -45 0 -21 -4 -41 -9
-45 -5 -3 -13 -34 -16 -70 -4 -36 -11 -65 -16 -65 -5 0 -9 -20 -9 -45 0 -25
-4 -45 -10 -45 -5 0 -10 -15 -10 -34 0 -19 -4 -37 -9 -40 -9 -6 -21 -72 -21
-118 0 -15 -4 -29 -10 -33 -5 -3 -10 -21 -10 -40 0 -19 -4 -37 -10 -40 -5 -3
-10 -24 -10 -46 0 -21 -4 -39 -10 -39 -5 0 -10 -15 -10 -33 0 -19 -3 -37 -7
-41 -8 -8 -34 -178 -28 -184 2 -2 152 -6 333 -9 361 -7 362 -7 362 51 0 14 5
28 10 31 6 3 10 14 10 23 0 9 7 30 15 46 8 15 15 39 15 52 0 12 5 26 10 29 6
3 10 19 10 35 0 16 5 32 10 35 6 3 10 16 10 28 0 12 7 31 15 41 8 11 15 28 15
38 0 10 4 26 9 36 15 30 53 146 58 179 3 18 9 33 14 33 5 0 9 9 9 20 0 11 9
36 21 56 11 20 23 59 26 85 3 27 10 49 14 49 5 0 9 9 9 20 0 11 3 20 8 20 9 0
28 45 37 89 4 19 16 50 26 68 11 19 19 40 19 48 0 9 4 23 9 33 23 43 41 92 41
111 0 12 5 21 10 21 6 0 10 9 10 20 0 12 8 30 19 41 10 11 21 38 24 59 3 22
14 52 26 69 12 16 21 36 21 44 0 9 8 30 17 49 30 61 33 68 33 85 0 10 9 29 20
43 11 14 20 37 20 51 0 15 7 40 15 55 8 16 15 42 15 57 0 16 5 38 11 49 13 25
14 288 1 297 -4 3 -9 19 -10 34 -2 27 -29 96 -42 107 -3 3 -14 22 -25 43 -11
21 -56 72 -100 113 -113 107 -122 114 -143 114 -11 0 -25 7 -32 15 -7 8 -18
15 -25 15 -7 0 -24 9 -38 20 -14 11 -32 20 -41 20 -9 0 -24 4 -34 9 -25 12
-81 29 -127 37 -22 4 -48 11 -57 15 -10 6 -19 5 -24 -2 -4 -8 -9 -8 -17 0 -12
12 -149 15 -160 4z"/>
<path d="M10298 2472 c-38 -2 -68 -7 -68 -12 0 -6 -9 -10 -19 -10 -23 0 -121
-50 -121 -61 0 -5 -6 -9 -14 -9 -25 0 -116 -113 -154 -190 -35 -73 -36 -78
-36 -197 -1 -85 3 -126 12 -134 6 -7 12 -20 12 -29 0 -21 23 -70 33 -70 4 0 7
-7 7 -15 0 -38 193 -195 239 -195 9 0 21 -4 27 -9 27 -26 251 -26 278 0 6 5
20 9 33 9 13 0 23 4 23 9 0 5 13 12 29 16 15 3 41 19 56 35 16 17 35 30 42 30
7 0 24 17 38 38 14 20 39 55 55 77 16 22 32 56 35 75 3 19 10 43 16 52 12 24
12 225 -1 233 -5 3 -10 17 -10 31 0 32 -23 77 -70 137 -65 81 -138 135 -235
173 -30 11 -132 19 -207 16z"/>
<path d="M9990 1039 c-14 -5 -46 -11 -71 -14 -25 -3 -55 -13 -65 -23 -11 -9
-37 -27 -59 -38 -48 -26 -154 -148 -162 -186 -3 -16 -9 -28 -14 -28 -5 0 -9
-13 -9 -28 0 -15 -5 -33 -12 -40 -15 -15 -15 -229 1 -245 6 -6 11 -19 11 -29
0 -9 9 -33 20 -53 24 -42 92 -135 100 -135 3 0 21 -14 40 -31 19 -16 52 -38
73 -47 20 -9 37 -20 37 -24 0 -5 10 -8 22 -8 12 0 48 -5 80 -12 71 -15 222 4
275 33 58 33 87 53 104 71 9 10 21 18 27 18 5 0 17 11 25 24 9 13 23 31 32 40
24 23 65 104 65 126 0 10 5 22 10 25 6 3 10 30 10 59 0 28 5 57 12 64 9 9 9
15 0 24 -7 7 -12 33 -12 59 0 26 -4 51 -10 54 -5 3 -10 18 -10 32 0 47 -87
161 -178 235 -77 63 -263 104 -342 77z"/>
</g>
</svg>
